<?xml version="1.0" encoding="UTF-8"?>
<!DOCTYPE svg PUBLIC "-//W3C//DTD SVG 1.1//EN" "http://www.w3.org/Graphics/SVG/1.1/DTD/svg11.dtd">
<!-- Creator: CorelDRAW -->
<svg xmlns="http://www.w3.org/2000/svg" xml:space="preserve" width="256px" height="212px" version="1.1" style="shape-rendering:geometricPrecision; text-rendering:geometricPrecision; image-rendering:optimizeQuality; fill-rule:evenodd; clip-rule:evenodd"
viewBox="0 0 12.43 10.27"
 xmlns:xlink="http://www.w3.org/1999/xlink"
 xmlns:xodm="http://www.corel.com/coreldraw/odm/2003">
 <defs>
  <style type="text/css">
   <![CDATA[
    .fil2 {fill:#EC008B}
    .fil0 {fill:#FEFEFE;fill-rule:nonzero}
    .fil1 {fill:#B6D9F2;fill-rule:nonzero}
   ]]>
  </style>
 </defs>
 <g id="Camada_x0020_1">
  <metadata id="CorelCorpID_0Corel-Layer"/>
  <g id="_2166751949104">
   <path class="fil0" d="M4.59 10.27l-2.43 0 0.01 0c0.14,0 0.26,-0.12 0.26,-0.27 0,-0.15 -0.12,-0.27 -0.27,-0.27l-0.06 0 0.06 0c-0.15,0 -0.27,-0.12 -0.27,-0.27 0,-0.15 0.12,-0.27 0.27,-0.27l0.06 0c0.01,0 0.02,0 0.04,0l0 0c0.01,0 0.02,0 0.03,0l0.01 0 0 0 0 0 0 0 0 0 0.2 0 0.2 0c0.15,0 0.27,-0.12 0.27,-0.27 0,-0.15 -0.12,-0.27 -0.27,-0.27 -0.09,0 0.09,0 0,0 -0.15,0 -0.27,-0.12 -0.27,-0.27 0,-0.15 0.12,-0.27 0.27,-0.27 0.27,0 0.27,0 0.54,0 0.15,0 0.27,-0.12 0.27,-0.27 0,-0.15 -0.12,-0.27 -0.27,-0.27 -0.35,0 -0.43,0 -0.79,0 0,0 -0.01,0 -0.02,0l-0.54 0c-0.15,0 -0.27,-0.12 -0.27,-0.27 0,-0.15 0.12,-0.27 0.27,-0.27l0.54 0c0.01,0 0.02,0 0.03,0l1.15 0 0 0 0.08 0c0.01,0 0.02,0 0.03,0l0.06 0c0.15,0 0.27,-0.12 0.27,-0.27 0,-0.15 -0.12,-0.27 -0.27,-0.27l-0.27 0c0,0 -0.01,0 -0.01,0l-0.22 0c0,0 -0.01,0 -0.02,0l-0.02 0c-0.15,0 -0.27,-0.12 -0.27,-0.27 0,-0.15 0.12,-0.27 0.27,-0.27l0.04 0 0.01 0c0.39,0 0.65,0 1.04,0 0.1,0 0.18,-0.06 0.23,-0.14l0 0 0 -0.01c0.01,-0.01 0.02,-0.03 0.02,-0.04l0 -0.01 0 0c0.01,-0.02 0.01,-0.05 0.01,-0.07 0,-0.15 -0.12,-0.27 -0.27,-0.27l-0.27 0c-0.16,0 -0.27,-0.13 -0.27,-0.27 0,-0.15 0.12,-0.27 0.29,-0.27l0.36 0 0 0 0.14 0c0.17,0 0.3,-0.12 0.3,-0.27 0,-0.14 -0.14,-0.27 -0.3,-0.27l0 0 -1.02 0c-0.17,0 -0.31,-0.12 -0.31,-0.27 0,-0.15 0.14,-0.27 0.31,-0.27l1.86 -0.01 1.87 -3.78 0.18 0 0.77 1.62 -3.64 8.65zm-4.32 -1.08l0 0c-0.15,0 -0.27,0.12 -0.27,0.27l0 0c0,0.15 0.12,0.27 0.27,0.27l0 0c0.15,0 0.27,-0.12 0.27,-0.27l0 0c0,-0.15 -0.12,-0.27 -0.27,-0.27zm1.08 0l-0.27 0c-0.15,0 -0.27,0.12 -0.27,0.27 0,0.15 0.12,0.27 0.27,0.27l0.27 0c0.15,0 0.27,-0.12 0.27,-0.27 0,-0.15 -0.12,-0.27 -0.27,-0.27zm0.54 -1.08l-1.62 0c-0.15,0 -0.27,0.12 -0.27,0.27 0,0.15 0.12,0.27 0.27,0.27l1.62 0c0.15,0 0.27,-0.12 0.27,-0.27 0,-0.15 -0.12,-0.27 -0.27,-0.27zm-0.81 -1.08l-0.54 0c-0.15,0 -0.27,0.12 -0.27,0.27 0,0.15 0.12,0.27 0.27,0.27l0.54 0c0.15,0 0.27,-0.12 0.27,-0.27 0,-0.15 -0.12,-0.27 -0.27,-0.27zm1.35 -1.08l-0.02 0 0 0 -1.02 0 -0.01 0 -0.03 0c-0.11,0 -0.21,0.07 -0.25,0.17 -0.01,0.03 -0.02,0.06 -0.02,0.1 0,0.03 0.01,0.07 0.02,0.1 0.04,0.1 0.14,0.17 0.25,0.17l0.02 0c0.01,0 0.01,0 0.02,0l1.01 0c0.01,0 0.01,0 0.02,0l0.01 0c0.15,0 0.27,-0.12 0.27,-0.27 0,-0.15 -0.12,-0.27 -0.27,-0.27zm0.81 -1.08l-0.27 0c-0.15,0 -0.27,0.12 -0.27,0.27 0,0.14 0.12,0.27 0.27,0.27l0.27 0c0.15,0 0.27,-0.13 0.27,-0.27 0,-0.15 -0.12,-0.27 -0.27,-0.27zm-2.96 1.08l0.27 0c0.15,0 0.26,0.12 0.26,0.27 0,0.14 -0.12,0.27 -0.27,0.27l-0.26 0c-0.15,0 -0.28,-0.12 -0.28,-0.27 0,-0.15 0.13,-0.27 0.28,-0.27zm0.3 -1.08l1.56 0c0.17,0 0.29,0.12 0.29,0.27 0,0.14 -0.13,0.26 -0.3,0.26l-1.56 0c-0.16,0 -0.3,-0.12 -0.3,-0.26 0,-0.15 0.14,-0.27 0.31,-0.27zm1.35 -1.08l0.74 0c0.17,0 0.3,0.12 0.3,0.27l0 0c0,0.14 -0.13,0.27 -0.3,0.27l-0.74 0c-0.17,0 -0.31,-0.12 -0.31,-0.27l0 0c0,-0.15 0.14,-0.27 0.31,-0.27z"/>
   <polygon class="fil1" points="7.37,4.36 8.39,1.9 12.43,10.27 9.92,10.27 "/>
   <polygon class="fil2" points="9.19,2.16 10.27,0 8.14,0 8.19,0.11 9.46,0.27 9.12,2 "/>
  </g>
 </g>
</svg>
