<?xml version="1.0" encoding="UTF-8"?>
<!DOCTYPE svg PUBLIC "-//W3C//DTD SVG 1.1//EN" "http://www.w3.org/Graphics/SVG/1.1/DTD/svg11.dtd">
<!-- Creator: CorelDRAW -->
<svg xmlns="http://www.w3.org/2000/svg" xml:space="preserve" width="269px" height="67px" version="1.1" style="shape-rendering:geometricPrecision; text-rendering:geometricPrecision; image-rendering:optimizeQuality; fill-rule:evenodd; clip-rule:evenodd"
viewBox="0 0 43.94 11"
 xmlns:xlink="http://www.w3.org/1999/xlink"
 xmlns:xodm="http://www.corel.com/coreldraw/odm/2003">
 <defs>
  <style type="text/css">
   <![CDATA[
    .fil4 {fill:#EC268F}
    .fil3 {fill:#B6D9F2;fill-rule:nonzero}
    .fil0 {fill:#04A9E2;fill-rule:nonzero}
    .fil2 {fill:#343C80;fill-rule:nonzero}
    .fil1 {fill:#343C80;fill-rule:nonzero}
   ]]>
  </style>
 </defs>
 <g id="Camada_x0020_1">
  <metadata id="CorelCorpID_0Corel-Layer"/>
  <g id="_1991981379584">
   <path class="fil0" d="M20.06 5.42c-0.13,-0.14 -0.27,-0.24 -0.4,-0.3 -0.14,-0.07 -0.28,-0.1 -0.43,-0.1 -0.26,0 -0.47,0.09 -0.63,0.27 -0.17,0.17 -0.25,0.4 -0.25,0.68 0,0.29 0.08,0.51 0.25,0.69 0.16,0.17 0.37,0.26 0.63,0.26 0.16,0 0.31,-0.03 0.46,-0.1 0.16,-0.06 0.31,-0.16 0.46,-0.29l-0.04 0.81c-0.13,0.09 -0.28,0.16 -0.43,0.21 -0.16,0.04 -0.32,0.07 -0.48,0.07 -0.18,0 -0.36,-0.03 -0.52,-0.09 -0.17,-0.05 -0.32,-0.14 -0.46,-0.25 -0.19,-0.15 -0.34,-0.34 -0.45,-0.57 -0.1,-0.22 -0.16,-0.46 -0.16,-0.73 0,-0.22 0.04,-0.44 0.12,-0.64 0.08,-0.19 0.19,-0.37 0.34,-0.52 0.15,-0.16 0.32,-0.27 0.51,-0.35 0.2,-0.08 0.4,-0.12 0.62,-0.12 0.17,0 0.33,0.02 0.49,0.07 0.16,0.05 0.31,0.12 0.45,0.22l-0.08 0.78zm0.96 0.56c0,0.27 0.07,0.49 0.23,0.67 0.16,0.18 0.35,0.27 0.57,0.27 0.23,0 0.42,-0.09 0.58,-0.27 0.15,-0.18 0.23,-0.4 0.23,-0.67 0,-0.27 -0.08,-0.49 -0.23,-0.67 -0.16,-0.18 -0.35,-0.27 -0.58,-0.27 -0.22,0 -0.41,0.09 -0.57,0.27 -0.16,0.18 -0.23,0.4 -0.23,0.67zm-0.75 0c0,-0.22 0.04,-0.44 0.11,-0.63 0.08,-0.2 0.2,-0.38 0.35,-0.54 0.14,-0.15 0.31,-0.26 0.5,-0.34 0.19,-0.08 0.39,-0.12 0.59,-0.12 0.21,0 0.41,0.04 0.6,0.12 0.19,0.08 0.36,0.2 0.51,0.35 0.15,0.15 0.26,0.32 0.34,0.52 0.07,0.2 0.11,0.41 0.11,0.64 0,0.19 -0.03,0.38 -0.08,0.54 -0.05,0.17 -0.13,0.33 -0.24,0.47 -0.15,0.2 -0.33,0.35 -0.55,0.46 -0.21,0.11 -0.44,0.17 -0.69,0.17 -0.2,0 -0.4,-0.04 -0.59,-0.12 -0.19,-0.08 -0.36,-0.2 -0.5,-0.35 -0.15,-0.16 -0.27,-0.33 -0.35,-0.53 -0.07,-0.2 -0.11,-0.41 -0.11,-0.64zm3.2 1.54l0.63 -3.17 0.05 0 1.16 2 1.08 -2 0.06 0 0.64 3.17 -0.7 0 -0.26 -1.4 -0.82 1.51 -0.04 0 -0.88 -1.54 -0.27 1.43 -0.65 0zm4.71 -2.51l-0.09 0 0 0.82 0.13 0c0.18,0 0.32,-0.03 0.42,-0.11 0.1,-0.07 0.14,-0.17 0.14,-0.3 0,-0.14 -0.04,-0.25 -0.14,-0.31 -0.09,-0.07 -0.25,-0.1 -0.46,-0.1zm-0.82 2.51l0 -3.07 0.78 0c0.24,0 0.44,0.02 0.58,0.05 0.14,0.04 0.26,0.1 0.37,0.18 0.12,0.08 0.21,0.19 0.27,0.31 0.06,0.13 0.09,0.26 0.09,0.4 0,0.31 -0.11,0.55 -0.33,0.74 -0.22,0.18 -0.51,0.27 -0.89,0.27 -0.04,0 -0.07,0 -0.09,0 -0.02,0 -0.04,0 -0.05,-0.01l0 1.13 -0.73 0zm3.2 -2.51l-0.12 0 0 0.85 0.15 0c0.19,0 0.33,-0.04 0.43,-0.11 0.09,-0.08 0.14,-0.19 0.14,-0.33 0,-0.14 -0.05,-0.25 -0.14,-0.31 -0.09,-0.07 -0.25,-0.1 -0.46,-0.1zm-0.83 2.51l0 -3.07 0.79 0c0.25,0 0.44,0.02 0.58,0.05 0.14,0.03 0.26,0.09 0.37,0.17 0.11,0.08 0.2,0.18 0.27,0.3 0.06,0.12 0.09,0.25 0.09,0.38 0,0.19 -0.05,0.36 -0.15,0.51 -0.1,0.14 -0.24,0.26 -0.42,0.34l0.93 1.32 -0.83 0 -0.82 -1.21 -0.1 0 0 1.21 -0.71 0zm3.24 -0.98l0.81 0 -0.4 -0.96 -0.41 0.96zm-1.14 0.98l1.56 -3.17 0.04 0 1.53 3.17 -0.77 0 -0.19 -0.45 -1.24 0 -0.2 0.45 -0.73 0z"/>
   <path class="fil1" d="M35.68 6.54l0.8 0 -0.4 -0.96 -0.4 0.96zm-1.15 0.98l1.56 -3.17 0.05 0 1.52 3.17 -0.76 0 -0.19 -0.45 -1.24 0 -0.2 0.45 -0.74 0zm1.26 -3.41l0.43 -0.74 0.47 0 -0.62 0.74 -0.28 0zm4.52 1.7l0 1.49c-0.2,0.11 -0.4,0.19 -0.6,0.24 -0.19,0.05 -0.38,0.08 -0.56,0.08 -0.47,0 -0.85,-0.16 -1.16,-0.47 -0.31,-0.3 -0.46,-0.69 -0.46,-1.16 0,-0.48 0.15,-0.87 0.47,-1.18 0.31,-0.31 0.7,-0.46 1.18,-0.46 0.18,0 0.35,0.02 0.51,0.07 0.16,0.05 0.32,0.12 0.47,0.22l-0.08 0.77c-0.14,-0.14 -0.28,-0.25 -0.42,-0.31 -0.14,-0.07 -0.29,-0.1 -0.44,-0.1 -0.28,0 -0.5,0.09 -0.68,0.27 -0.18,0.18 -0.27,0.42 -0.27,0.69 0,0.29 0.08,0.53 0.26,0.71 0.17,0.19 0.39,0.28 0.67,0.28 0.06,0 0.12,-0.01 0.19,-0.02 0.06,-0.01 0.13,-0.03 0.2,-0.05l0 -0.44 -0.58 0 0 -0.63 1.3 0zm0.44 1.71l0 -3.07 0.73 0 0 3.07 -0.73 0zm1.27 0l0 -3.07 0.73 0 0 2.41 1.19 0 0 0.66 -1.92 0z"/>
  </g>
  <g id="_1991981382368">
   <path class="fil2" d="M4.92 11l-2.6 0 0 0c0.16,0 0.29,-0.13 0.29,-0.29 0,-0.16 -0.13,-0.29 -0.29,-0.29l-0.07 0 0.07 0c-0.16,0 -0.29,-0.13 -0.29,-0.29 0,-0.16 0.13,-0.29 0.29,-0.29l0.06 0c0.01,0 0.02,0 0.04,0l0 0c0.02,0 0.03,0 0.04,0l0 0 0 0 0 0 0 0 0 0 0.22 0 0.22 0c0.15,0 0.28,-0.13 0.28,-0.29 0,-0.16 -0.13,-0.29 -0.28,-0.29 -0.1,0 0.09,0 0,0 -0.16,0 -0.29,-0.13 -0.29,-0.29 0,-0.15 0.13,-0.28 0.29,-0.28 0.28,0 0.28,0 0.57,0 0.16,0 0.29,-0.13 0.29,-0.29 0,-0.16 -0.13,-0.29 -0.29,-0.29 -0.37,0 -0.46,0 -0.84,0 -0.01,0 -0.02,0 -0.02,0l-0.58 0c-0.16,0 -0.29,-0.13 -0.29,-0.29 0,-0.16 0.13,-0.29 0.29,-0.29l0.58 0c0.01,0 0.02,0 0.03,0l1.23 0 0 0 0.08 0c0.01,0 0.02,0 0.04,0l0.06 0c0.16,0 0.29,-0.13 0.29,-0.29 0,-0.16 -0.13,-0.29 -0.29,-0.29l-0.29 0c0,0 -0.01,0 -0.01,0l-0.23 0c-0.01,0 -0.02,0 -0.02,0l-0.03 0c-0.16,0 -0.29,-0.13 -0.29,-0.29 0,-0.16 0.13,-0.29 0.29,-0.29l0.04 0 0.01 0c0.42,0 0.7,0 1.12,0 0.11,0 0.19,-0.06 0.24,-0.15l0 0 0.01 0c0.01,-0.02 0.01,-0.04 0.02,-0.05l0 -0.01 0 0c0.01,-0.02 0.01,-0.05 0.01,-0.08 0,-0.16 -0.13,-0.29 -0.29,-0.29l-0.29 0c-0.18,0 -0.29,-0.13 -0.29,-0.29 0,-0.16 0.13,-0.29 0.3,-0.29l0.39 0 0 0 0.16 0c0.18,0 0.31,-0.12 0.31,-0.28 0,-0.16 -0.14,-0.29 -0.32,-0.29l0 0 -1.09 0c-0.18,0 -0.33,-0.13 -0.33,-0.29 0,-0.16 0.15,-0.29 0.33,-0.29l1.99 -0.01 2 -4.05 0.2 0 0.82 1.74 -3.89 9.26zm-4.63 -1.16l0 0c-0.16,0 -0.29,0.13 -0.29,0.29l0 0c0,0.16 0.13,0.29 0.29,0.29l0 0c0.16,0 0.29,-0.13 0.29,-0.29l0 0c0,-0.16 -0.13,-0.29 -0.29,-0.29zm1.16 0l-0.29 0c-0.16,0 -0.29,0.13 -0.29,0.29 0,0.16 0.13,0.29 0.29,0.29l0.29 0c0.16,0 0.29,-0.13 0.29,-0.29 0,-0.16 -0.13,-0.29 -0.29,-0.29zm0.58 -1.15l-1.74 0c-0.16,0 -0.29,0.13 -0.29,0.28 0,0.16 0.13,0.29 0.29,0.29l1.74 0c0.16,0 0.29,-0.13 0.29,-0.29 0,-0.15 -0.13,-0.28 -0.29,-0.28zm-0.87 -1.16l-0.58 0c-0.16,0 -0.29,0.13 -0.29,0.29 0,0.16 0.13,0.29 0.29,0.29l0.58 0c0.16,0 0.29,-0.13 0.29,-0.29 0,-0.16 -0.13,-0.29 -0.29,-0.29zm1.45 -1.16l-0.02 0 -0.01 0 -1.09 0 -0.01 0 -0.03 0c-0.13,0 -0.23,0.08 -0.27,0.18 -0.02,0.04 -0.03,0.07 -0.03,0.11 0,0.04 0.01,0.08 0.03,0.11 0.04,0.1 0.15,0.18 0.27,0.18l0.02 0c0,0 0.01,0 0.01,0l1.09 0c0.01,0 0.02,0 0.02,0l0.02 0c0.15,0 0.29,-0.13 0.29,-0.29 0,-0.16 -0.14,-0.29 -0.29,-0.29zm0.86 -1.16l-0.29 0c-0.15,0 -0.28,0.13 -0.28,0.29 0,0.16 0.13,0.29 0.28,0.29l0.29 0c0.16,0 0.29,-0.13 0.29,-0.29 0,-0.16 -0.13,-0.29 -0.29,-0.29zm-3.17 1.16l0.29 0c0.16,0 0.28,0.13 0.28,0.29 0,0.16 -0.13,0.29 -0.29,0.29l-0.28 0c-0.16,0 -0.3,-0.13 -0.3,-0.29 0,-0.16 0.14,-0.29 0.3,-0.29zm0.32 -1.16l1.67 0c0.18,0 0.32,0.13 0.32,0.29 0,0.16 -0.15,0.29 -0.33,0.29l-1.66 0c-0.18,0 -0.33,-0.13 -0.33,-0.29 0,-0.16 0.15,-0.29 0.33,-0.29zm1.44 -1.15l0.8 0c0.18,0 0.32,0.13 0.32,0.28l0 0c0,0.16 -0.14,0.3 -0.32,0.3l-0.8 0c-0.18,0 -0.32,-0.13 -0.32,-0.29l0 0c0,-0.16 0.14,-0.29 0.32,-0.29z"/>
   <polygon class="fil3" points="7.9,4.67 8.99,2.03 13.32,11 10.63,11 "/>
   <polygon class="fil4" points="9.84,2.32 11,0 8.72,0 8.77,0.12 10.13,0.29 9.77,2.15 "/>
  </g>
 </g>
</svg>
