<?xml version="1.0" encoding="UTF-8"?>
<!DOCTYPE svg PUBLIC "-//W3C//DTD SVG 1.1//EN" "http://www.w3.org/Graphics/SVG/1.1/DTD/svg11.dtd">
<!-- Creator: CorelDRAW -->
<svg xmlns="http://www.w3.org/2000/svg" xml:space="preserve" width="454px" height="375px" version="1.1" style="shape-rendering:geometricPrecision; text-rendering:geometricPrecision; image-rendering:optimizeQuality; fill-rule:evenodd; clip-rule:evenodd"
viewBox="0 0 34.59 28.58"
 xmlns:xlink="http://www.w3.org/1999/xlink"
 xmlns:xodm="http://www.corel.com/coreldraw/odm/2003">
 <defs>
  <style type="text/css">
   <![CDATA[
    .fil2 {fill:#EC268F}
    .fil1 {fill:#B6D9F2;fill-rule:nonzero}
    .fil0 {fill:#343C80;fill-rule:nonzero}
   ]]>
  </style>
 </defs>
 <g id="Camada_x0020_1">
  <metadata id="CorelCorpID_0Corel-Layer"/>
  <g id="_2261677018784">
   <path class="fil0" d="M12.78 28.56l-6.77 0.01 0.02 0c0.41,-0.01 0.74,-0.34 0.74,-0.75 0,-0.41 -0.34,-0.75 -0.76,-0.75l-0.16 0 0.16 0c-0.41,0 -0.75,-0.34 -0.75,-0.75 0,-0.42 0.34,-0.76 0.75,-0.76l0.17 0c0.03,0 0.06,0 0.09,0l0.03 0c0.02,0 0.05,0 0.08,0l0 0 0.01 0 0 0 0 0 0 0 0.56 0 0.57 0c0.41,0 0.75,-0.34 0.75,-0.75 0,-0.41 -0.34,-0.75 -0.75,-0.75 -0.25,0 0.25,0 0,0 -0.42,0 -0.75,-0.34 -0.75,-0.75 0,-0.42 0.33,-0.75 0.75,-0.75 0.75,0 0.75,0 1.5,0 0.42,0 0.75,-0.34 0.75,-0.76 0,-0.41 -0.33,-0.75 -0.75,-0.75 -0.98,0 -1.21,0 -2.2,0 -0.02,0 -0.04,0 -0.05,0l-1.51 0c-0.41,0 -0.75,-0.34 -0.75,-0.75 0,-0.41 0.34,-0.75 0.75,-0.75l1.51 0c0.02,0 0.05,0 0.08,0l3.19 0 0.01 0 0.21 0c0.03,0 0.06,0 0.09,0l0.18 0c0.41,0 0.75,-0.34 0.75,-0.75 0,-0.42 -0.34,-0.76 -0.75,-0.76l-0.76 0c-0.01,0 -0.02,0.01 -0.03,0.01l-0.61 0c-0.02,0 -0.03,0 -0.05,-0.01l-0.06 0c-0.41,0 -0.75,-0.33 -0.75,-0.75 0,-0.41 0.34,-0.75 0.75,-0.75l0.1 0 0.03 0c1.08,0 1.81,0 2.9,0 0.28,0 0.51,-0.15 0.64,-0.38l0 0 0 -0.01c0.02,-0.04 0.04,-0.09 0.06,-0.14l0 0 0 -0.01c0.02,-0.06 0.03,-0.14 0.03,-0.21 0,-0.41 -0.34,-0.75 -0.75,-0.75l-0.75 0c-0.47,0 -0.75,-0.34 -0.75,-0.75 0,-0.42 0.31,-0.76 0.78,-0.76l1.01 0 0 0 0.4 0c0.46,0 0.81,-0.31 0.81,-0.73 0,-0.4 -0.37,-0.74 -0.82,-0.75l0 0 -2.84 0c-0.47,0 -0.85,-0.34 -0.85,-0.75 0,-0.42 0.39,-0.77 0.86,-0.77l5.16 0 5.2 -10.53 0.5 0 2.15 4.51 -10.11 24.05zm-12.03 -3l0 0c-0.41,0 -0.75,0.34 -0.75,0.76l0 0c0,0.41 0.34,0.75 0.75,0.75l0 0c0.42,0 0.75,-0.34 0.75,-0.75l0 0c0,-0.42 -0.33,-0.76 -0.75,-0.76zm3.01 0l-0.75 0c-0.42,0 -0.75,0.34 -0.75,0.76 0,0.41 0.33,0.75 0.75,0.75l0.75 0c0.41,0 0.75,-0.34 0.75,-0.75 0,-0.42 -0.34,-0.76 -0.75,-0.76zm1.5 -3l-4.5 0c-0.42,0 -0.76,0.33 -0.76,0.75 0,0.41 0.34,0.75 0.76,0.75l4.5 0c0.42,0 0.75,-0.34 0.75,-0.75 0,-0.42 -0.33,-0.75 -0.75,-0.75zm-2.25 -3.01l-1.51 0c-0.41,0 -0.75,0.34 -0.75,0.75 0,0.41 0.34,0.75 0.75,0.75l1.51 0c0.41,0 0.75,-0.34 0.75,-0.75 0,-0.41 -0.34,-0.75 -0.75,-0.75zm3.76 -3.01l-0.05 0 -0.03 0 -2.83 0 -0.02 0 -0.08 0c-0.32,0 -0.59,0.2 -0.7,0.48 -0.04,0.09 -0.06,0.18 -0.06,0.27 0,0.1 0.02,0.2 0.07,0.29 0.11,0.27 0.38,0.46 0.69,0.46l0.05 0c0.02,0.01 0.03,0.01 0.05,0.01l2.82 0c0.02,0 0.04,0 0.05,-0.01l0.04 0c0.41,0 0.75,-0.33 0.75,-0.75 0,-0.41 -0.34,-0.75 -0.75,-0.75zm2.25 -3.01l-0.75 0c-0.41,0 -0.75,0.34 -0.75,0.76 0,0.41 0.34,0.75 0.75,0.75l0.75 0c0.42,0 0.75,-0.34 0.75,-0.75 0,-0.42 -0.33,-0.76 -0.75,-0.76zm-8.24 3.01l0.74 0c0.42,0 0.74,0.34 0.74,0.75 0,0.42 -0.33,0.76 -0.74,0.76l-0.75 0c-0.42,0 -0.77,-0.34 -0.77,-0.76 0,-0.41 0.36,-0.75 0.78,-0.75zm0.82 -3.01l4.35 0c0.47,0 0.82,0.34 0.82,0.76 0,0.41 -0.39,0.74 -0.85,0.74l-4.32 0c-0.47,0 -0.85,-0.33 -0.85,-0.74 0,-0.42 0.39,-0.76 0.85,-0.76zm3.76 -3l2.06 0c0.47,0 0.85,0.34 0.85,0.75l0 0c0,0.41 -0.38,0.77 -0.85,0.77l-2.06 0c-0.47,0 -0.85,-0.34 -0.85,-0.75l0 0c0,-0.42 0.38,-0.77 0.85,-0.77z"/>
   <polygon class="fil1" points="20.51,12.13 23.34,5.27 34.59,28.57 27.61,28.58 "/>
   <polygon class="fil2" points="25.56,6.01 28.57,0 22.64,0 22.78,0.31 26.32,0.75 25.36,5.58 "/>
  </g>
 </g>
</svg>
