<?xml version="1.0" encoding="UTF-8"?>
<!DOCTYPE svg PUBLIC "-//W3C//DTD SVG 1.1//EN" "http://www.w3.org/Graphics/SVG/1.1/DTD/svg11.dtd">
<!-- Creator: CorelDRAW -->
<svg xmlns="http://www.w3.org/2000/svg" xml:space="preserve" width="86.769mm" height="86.7691mm" version="1.1" style="shape-rendering:geometricPrecision; text-rendering:geometricPrecision; image-rendering:optimizeQuality; fill-rule:evenodd; clip-rule:evenodd"
viewBox="0 0 7133.09 7133.1"
 xmlns:xlink="http://www.w3.org/1999/xlink"
 xmlns:xodm="http://www.corel.com/coreldraw/odm/2003">
 <defs>
  <style type="text/css">
   <![CDATA[
    .fil0 {fill:none}
    .fil3 {fill:#EC008B}
    .fil1 {fill:#FEFEFE;fill-rule:nonzero}
    .fil5 {fill:#FEFEFE;fill-rule:nonzero}
    .fil2 {fill:#B6D9F2;fill-rule:nonzero}
    .fil4 {fill:#04A9E2;fill-rule:nonzero}
   ]]>
  </style>
 </defs>
 <g id="Camada_x0020_1">
  <metadata id="CorelCorpID_0Corel-Layer"/>
  <path class="fil0" d="M620.27 7133.1l5892.56 0c341.17,0 620.27,-279.11 620.27,-620.26l0 -5892.58c0,-341.14 -279.1,-620.26 -620.27,-620.26l-5892.56 0c-341.15,0 -620.27,279.12 -620.27,620.26l0 5892.58c0,341.15 279.12,620.26 620.27,620.26z"/>
  <path class="fil1" d="M2335.32 5406.93l-1107.93 1.93 2.27 -0.7c66.67,-1.23 120.83,-56.12 120.83,-123.09 0,-67.71 -55.38,-123.11 -123.1,-123.11l-27.25 0 27.24 0c-67.71,0 -123.09,-55.38 -123.09,-123.1 0,-67.72 55.38,-123.11 123.09,-123.11l26.73 0c5.17,-0.65 10.44,-0.97 15.78,-0.97l3.57 0c4.67,0.59 9.43,0.92 14.24,0.97l0.24 0 0.25 0 0.24 0 0.25 0 0.24 0 92.38 0 92.32 0c67.68,0 123.09,-55.39 123.09,-123.11 0,-67.71 -55.41,-123.11 -123.09,-123.11 -41.03,0 41.03,0 0,0 -67.75,0 -123.12,-55.38 -123.12,-123.1 0,-67.71 55.38,-123.11 123.12,-123.11 123.09,0 123.07,0 246.17,0 67.74,0 123.12,-55.38 123.12,-123.11 0,-67.71 -55.38,-123.1 -123.12,-123.1 -160.72,0 -199.02,-0.36 -360.39,-0.36 -2.95,0.22 -5.92,0.33 -8.92,0.33l-246.2 0c-67.7,0 -123.09,-55.39 -123.09,-123.11 0,-67.71 55.39,-123.07 123.09,-123.07l246.2 0c4.49,0 8.92,-0.48 13.28,0l523.06 0 0.59 0 34.58 0c5.08,0 10.08,0.43 15.03,0l28.97 0c67.73,0 123.12,-55.35 123.12,-123.07 0,-67.72 -55.39,-123.11 -123.12,-123.11l-123.09 0c-2.11,0 -4.23,0.05 -6.31,0.16l-99.42 0c-2.57,0 -5.15,-0.07 -7.69,-0.19l-9.68 0c-67.74,0 -123.11,-55.39 -123.11,-123.11 0,-67.71 55.37,-123.11 123.11,-123.11l16.54 0 4.07 -0.05c177.74,0 297.28,0 475.02,0 45.96,0 82.96,-25.32 104.11,-62.86l0.09 -0.13 0.76 -1.38c3.9,-6.95 7.06,-14.31 9.36,-22.06l0.32 -1.04 0.12 -0.43c3.32,-11.11 5.11,-22.87 5.11,-35.05 0,-67.71 -55.38,-123.1 -123.12,-123.1l-123.08 0.02c-76.01,0 -123.11,-55.65 -123.11,-123.25 0,-67.57 51.94,-122.98 128.15,-122.98l164.95 0 0.61 0 65.18 0c76.21,0 133.52,-51.89 133.52,-119.49 0,-66.62 -60.55,-122.51 -135.25,-124.09l0.62 0 -465.44 0c-76.11,0 -138.55,-55.3 -138.55,-122.9 0,-67.57 64.11,-125.03 140.32,-125.11l844.5 -0.94 852.17 -1723.45 81.5 0 351.28 738.62 -1654.27 3938.07zm-1969.64 -491.17l-0.03 0c-67.7,0 -123.09,55.38 -123.09,123.09l0 0.03c0,67.7 55.39,123.08 123.09,123.08l0.03 0c67.7,0 123.08,-55.38 123.08,-123.08l0 -0.03c0,-67.71 -55.38,-123.09 -123.08,-123.09zm492.38 0l-123.09 0c-67.73,0 -123.11,55.38 -123.11,123.11 0,67.71 55.38,123.1 123.11,123.1l123.09 0c67.73,0 123.11,-55.38 123.11,-123.1 0,-67.72 -55.38,-123.11 -123.11,-123.11zm246.22 -492.42l-737.97 0c-67.68,0 -123.11,55.39 -123.11,123.11 0,67.71 55.42,123.1 123.11,123.1l737.97 0c67.68,0 123.11,-55.38 123.11,-123.1 0,-67.71 -55.42,-123.11 -123.11,-123.11zm-369.33 -492.42l-246.21 0c-67.68,0 -123.08,55.36 -123.08,123.07 0,67.71 55.38,123.11 123.08,123.11l246.21 0c67.73,0 123.12,-55.39 123.12,-123.11 0,-67.71 -55.42,-123.07 -123.12,-123.07zm615.55 -492.42l-8.16 0 -4.08 -0.05 -462.94 0 -4.08 0.05 -13.18 0c-52.12,0 -96.93,32.83 -114.8,78.85 -6.29,13.76 -9.77,28.68 -9.77,44.25 0,16.65 3.9,32.57 10.92,47.12 18.59,44.51 62.63,75.98 113.66,75.98l8.23 0c2.54,0.12 5.12,0.19 7.69,0.19l462.94 0c2.58,0 5.14,-0.07 7.68,-0.19l5.89 0c67.69,0 123.09,-55.39 123.09,-123.11 0,-67.71 -55.4,-123.11 -123.09,-123.11zm369.28 -492.41l-123.08 0c-67.73,0 -123.11,55.38 -123.11,123.1 0,67.72 55.38,123.11 123.11,123.11l123.08 0c67.74,0 123.12,-55.38 123.12,-123.11 0,-67.71 -55.38,-123.1 -123.12,-123.1zm-1350.2 492.36l122.42 0c67.71,0 119.86,55.61 119.86,123.16 0,67.53 -53.54,123.3 -121.19,123.3l-122.42 0c-67.65,0 -125.01,-55.71 -125.01,-123.3 0,-67.57 58.63,-123.16 126.35,-123.16zm135.74 -492.24l711.62 0c76.23,0 133.54,55.39 133.54,122.98 0,67.6 -62.51,121.85 -138.59,121.85l-707.69 0c-76.04,0 -138.55,-54.25 -138.55,-121.85 0,-67.59 63.46,-122.98 139.66,-122.98zm614.45 -491.59l338.17 0c76.22,0 138.57,55.35 138.57,122.87l0 0.02c0,67.54 -62.41,125.13 -138.57,125.13l-338.17 0c-76.17,0 -138.59,-55.28 -138.59,-122.88l0 -0.02c0,-67.57 62.36,-125.11 138.59,-125.11z"/>
  <polygon class="fil2" points="3600.99,2716.94 4064.57,1593.52 5905.33,5408.18 4762.68,5409.15 "/>
  <polygon class="fil3" points="4428.08,1715.07 4920.51,730.24 3949.06,730.24 3972.73,780.18 4551.18,853.34 4394.84,1643.12 "/>
  <g id="_2261502129488">
   <path class="fil4" d="M1060.55 5886.31c-30.92,-31.9 -62.19,-55.54 -93.78,-71.07 -31.77,-15.36 -65.04,-23.13 -99.84,-23.13 -60.33,0 -109.75,20.94 -148.07,62.8 -38.49,41.87 -57.65,95.72 -57.65,161.22 0,65.67 19,118.85 57.15,159.53 37.98,40.68 87.57,61.11 148.75,61.11 36.14,0 72.1,-7.6 108.08,-22.79 35.96,-15.19 71.76,-37.98 107.56,-68.37l-10.93 190.43c-30.59,20.76 -63.87,36.63 -100.17,47.43 -36.3,10.97 -73.95,16.38 -113.12,16.38 -42.02,0 -82.18,-6.58 -120.85,-19.75 -38.49,-13.16 -74.12,-32.75 -106.56,-58.41 -46.05,-36.29 -81.18,-80.52 -105.72,-132.86 -24.37,-52.16 -36.64,-109.22 -36.64,-170.84 0,-53.17 9.08,-102.97 27.06,-149.4 18.15,-46.42 44.37,-87.62 78.83,-123.24 34.78,-35.62 74.96,-62.8 120.67,-81.87 45.55,-18.91 93.62,-28.36 144.21,-28.36 40.17,0 78.33,5.57 114.79,16.88 36.48,11.15 71.27,28.2 104.37,50.99l-18.15 183.33zm223.84 131.67c0,62.29 18.15,114.62 54.45,156.66 36.31,42.04 81.02,63.14 134.13,63.14 53.44,0 98.32,-20.93 134.46,-62.8 36.14,-42.03 54.12,-94.37 54.12,-156.99 0,-62.96 -17.98,-115.63 -54.12,-157.67 -36.14,-42.03 -81.02,-63.14 -134.46,-63.14 -53.11,0 -97.82,21.1 -134.13,63.14 -36.29,42.04 -54.45,94.71 -54.45,157.67zm-175.47 0c0,-53.17 9.08,-102.81 27.4,-149.06 18.15,-46.42 45.04,-87.78 80.51,-124.41 33.45,-34.95 72.44,-61.79 116.81,-80.36 44.2,-18.74 90.77,-28.02 139.33,-28.02 48.58,0 95.13,9.45 139.67,28.2 44.53,18.74 84.03,45.91 118.49,81.2 34.78,35.28 61.17,75.96 78.99,122.39 17.98,46.25 26.89,96.39 26.89,150.07 0,44.9 -6.21,87.11 -18.66,126.61 -12.6,39.5 -31.09,75.63 -55.79,108.38 -34.79,46.42 -77.48,82.54 -128.24,108.2 -50.76,25.83 -104.54,38.66 -161.36,38.66 -48.23,0 -94.46,-9.45 -138.66,-28.2 -44.21,-18.74 -83.37,-45.91 -117.48,-81.2 -35.46,-36.46 -62.35,-77.82 -80.51,-123.9 -18.32,-45.92 -27.4,-95.55 -27.4,-148.56zm748.23 358.56l148.25 -740.41 12.27 0 269.42 466.94 254.13 -466.94 12.78 0 149.25 740.41 -162.02 0 -60.5 -327.5 -191.61 353.83 -11.43 0 -205.72 -358.72 -62.69 332.39 -152.1 0zm1103.2 -585.44l-23.2 0 0 191.44 30.93 0c43.03,0 75.8,-8.28 98.48,-24.98 22.69,-16.71 33.95,-40.68 33.95,-71.92 0,-32.75 -11.09,-56.55 -33.44,-71.75 -22.35,-15.19 -57.99,-22.79 -106.73,-22.79zm-193.62 585.44l0 -717.11 183.71 0c56.47,0 101.35,4.05 134.45,12.32 33.11,8.27 62.53,22.11 88.24,41.53 26.56,19.41 47.23,43.72 61.85,72.93 14.62,29.2 21.85,60.09 21.85,92.67 0,72.59 -25.71,129.99 -77.14,172.53 -51.26,42.54 -121.02,63.81 -209.09,63.81 -9.08,0 -15.96,0 -20.68,-0.16 -4.54,-0.17 -8.9,-0.51 -12.78,-0.85l0 262.33 -170.42 0zm749.07 -586.45l-28.07 0 0 198.52 35.97 0c43.03,0 75.8,-8.78 98.48,-26.17 22.69,-17.39 33.95,-42.54 33.95,-75.12 0,-34.27 -10.93,-58.92 -32.94,-74.27 -22.02,-15.36 -57.82,-22.96 -107.4,-22.96zm-193.46 586.45l0 -717.11 183.54 0c58.83,0 104.38,3.88 136.81,11.65 32.45,7.77 61.01,20.59 86.06,38.83 26.56,19.07 47.23,42.71 61.85,70.9 14.63,28.19 21.86,57.9 21.86,89.13 0,45.24 -11.44,84.74 -34.3,118.68 -22.85,33.93 -55.79,60.43 -98.82,79.68l217.82 308.25 -194.63 0 -190.6 -281.58 -24.2 0 0 281.58 -165.39 0zm757.64 -227.9l187.57 0 -92.62 -224.52 -94.96 224.52zm-267.23 227.9l364.21 -739.4 10.75 0 356.15 739.4 -178.33 0 -45.21 -104.33 -289.77 0 -46.22 104.33 -171.6 0z"/>
   <path class="fil5" d="M4712.38 6148.64l187.57 0 -92.62 -224.52 -94.96 224.52zm-267.23 227.9l364.21 -739.4 10.76 0 356.14 739.4 -178.32 0 -45.21 -104.33 -289.76 0 -46.23 104.33 -171.6 0zm294.47 -797.13l100.51 -171.18 109.25 0 -145.22 171.18 -64.53 0zm1055.97 399.07l0 348.59c-47.91,24.14 -94.64,42.21 -140.01,54.36 -45.55,12.32 -89.59,18.4 -132.28,18.4 -108.74,0 -198.84,-35.96 -270.6,-108.04 -71.77,-72.09 -107.57,-163.08 -107.57,-272.81 0,-110.91 36.3,-202.58 109.08,-274.99 72.77,-72.59 164.71,-108.88 276.14,-108.88 42.02,0 82.03,5.74 120.17,17.39 37.99,11.48 74.62,29.04 109.76,52.33l-18.32 179.44c-33.11,-33.59 -66.05,-58.24 -98.83,-73.77 -32.93,-15.7 -67.39,-23.47 -103.52,-23.47 -64.04,0 -116.98,21.44 -159.01,64.49 -42.02,43.04 -63.03,96.9 -63.03,161.38 0,68.04 20.34,123.4 60.85,166.45 40.5,43.05 92.77,64.49 156.65,64.49 14.79,0 29.74,-1.36 44.87,-3.89 15.13,-2.7 30.76,-6.41 47.24,-11.48l0 -104.16 -135.13 0 0 -145.85 303.54 0zm103.15 398.06l0 -717.11 170.43 0 0 717.11 -170.43 0zm296.61 0l0 -717.11 170.42 0 0 563.16 278.34 0 0 153.96 -448.76 0z"/>
  </g>
 </g>
</svg>
