<?xml version="1.0" encoding="UTF-8"?>
<!DOCTYPE svg PUBLIC "-//W3C//DTD SVG 1.1//EN" "http://www.w3.org/Graphics/SVG/1.1/DTD/svg11.dtd">
<!-- Creator: CorelDRAW -->
<svg xmlns="http://www.w3.org/2000/svg" xml:space="preserve" width="2152px" height="672px" version="1.1" style="shape-rendering:geometricPrecision; text-rendering:geometricPrecision; image-rendering:optimizeQuality; fill-rule:evenodd; clip-rule:evenodd"
viewBox="0 0 1931.8 603.54"
 xmlns:xlink="http://www.w3.org/1999/xlink"
 xmlns:xodm="http://www.corel.com/coreldraw/odm/2003">
 <defs>
  <style type="text/css">
   <![CDATA[
    .fil2 {fill:#EC008B}
    .fil0 {fill:#FEFEFE;fill-rule:nonzero}
    .fil1 {fill:#B6D9F2;fill-rule:nonzero}
    .fil3 {fill:#04A9E2;fill-rule:nonzero}
   ]]>
  </style>
 </defs>
 <g id="Camada_x0020_1">
  <metadata id="CorelCorpID_0Corel-Layer"/>
  <path class="fil0" d="M269.95 603.25l-142.92 0.25 0.3 -0.09c8.6,-0.16 15.58,-7.24 15.58,-15.88 0,-8.73 -7.14,-15.88 -15.88,-15.88l-3.51 0 3.51 0c-8.73,0 -15.87,-7.14 -15.87,-15.87 0,-8.74 7.14,-15.88 15.87,-15.88l3.45 0c0.67,-0.09 1.35,-0.13 2.04,-0.13l0.46 0c0.6,0.08 1.21,0.12 1.83,0.13l0.03 0 0.04 0 0.03 0 0.03 0 0.03 0 11.92 0 11.91 0c8.73,0 15.87,-7.15 15.87,-15.88 0,-8.74 -7.14,-15.88 -15.87,-15.88 -5.3,0 5.29,0 0,0 -8.74,0 -15.89,-7.15 -15.89,-15.88 0,-8.74 7.15,-15.88 15.89,-15.88 15.87,0 15.87,0 31.75,0 8.74,0 15.88,-7.15 15.88,-15.88 0,-8.74 -7.14,-15.88 -15.88,-15.88 -20.73,0 -25.67,-0.05 -46.49,-0.05 -0.38,0.03 -0.76,0.05 -1.15,0.05l-31.76 0c-8.73,0 -15.87,-7.15 -15.87,-15.88 0,-8.74 7.14,-15.88 15.87,-15.88l31.76 0c0.58,0 1.15,-0.06 1.71,0l67.48 0 0.07 0 4.46 0c0.66,0 1.3,0.06 1.94,0l3.74 0c8.73,0 15.88,-7.14 15.88,-15.87 0,-8.74 -7.15,-15.88 -15.88,-15.88l-15.88 0c-0.27,0 -0.54,0 -0.81,0.02l-12.83 0c-0.33,0 -0.66,-0.01 -0.99,-0.03l-1.25 0c-8.74,0 -15.88,-7.14 -15.88,-15.88 0,-8.73 7.14,-15.88 15.88,-15.88l2.14 0 0.52 0c22.93,0 38.35,0 61.27,0 5.93,0 10.71,-3.27 13.43,-8.11l0.01 -0.02 0.1 -0.18c0.51,-0.89 0.91,-1.84 1.21,-2.84l0.04 -0.13 0.02 -0.06c0.43,-1.43 0.66,-2.95 0.66,-4.52 0,-8.73 -7.15,-15.88 -15.88,-15.88l-15.88 0c-9.8,0 -15.88,-7.17 -15.88,-15.89 0,-8.72 6.7,-15.87 16.53,-15.87l21.28 0 0.08 0 8.4 0c9.83,0 17.23,-6.69 17.23,-15.41 0,-8.59 -7.81,-15.8 -17.45,-16.01l0.08 0 -60.04 0c-9.81,0 -17.87,-7.13 -17.87,-15.85 0,-8.72 8.27,-16.13 18.1,-16.14l108.94 -0.12 109.92 -222.31 10.51 0 45.31 95.28 -213.38 507.97zm-254.07 -63.35l0 0c-8.73,0 -15.88,7.14 -15.88,15.87l0 0.01c0,8.73 7.15,15.87 15.88,15.87l0 0c8.73,0 15.88,-7.14 15.88,-15.87l0 -0.01c0,-8.73 -7.15,-15.87 -15.88,-15.87zm63.51 0l-15.87 0c-8.74,0 -15.88,7.14 -15.88,15.88 0,8.73 7.14,15.87 15.88,15.87l15.87 0c8.74,0 15.89,-7.14 15.89,-15.87 0,-8.74 -7.15,-15.88 -15.89,-15.88zm31.77 -63.52l-95.2 0c-8.73,0 -15.88,7.14 -15.88,15.88 0,8.73 7.15,15.88 15.88,15.88l95.2 0c8.73,0 15.87,-7.15 15.87,-15.88 0,-8.74 -7.14,-15.88 -15.87,-15.88zm-47.64 -63.52l-31.76 0c-8.73,0 -15.88,7.14 -15.88,15.88 0,8.73 7.14,15.88 15.88,15.88l31.76 0c8.73,0 15.88,-7.15 15.88,-15.88 0,-8.74 -7.15,-15.88 -15.88,-15.88zm79.4 -63.52l-1.06 0 -0.52 0 -59.72 0 -0.53 0 -1.7 0c-6.72,0 -12.5,4.24 -14.8,10.18 -0.81,1.77 -1.26,3.7 -1.26,5.7 0,2.15 0.5,4.2 1.4,6.08 2.4,5.74 8.08,9.8 14.66,9.8l1.07 0c0.32,0.02 0.66,0.03 0.99,0.03l59.71 0c0.34,0 0.67,-0.01 1,-0.03l0.76 0c8.73,0 15.87,-7.14 15.87,-15.88 0,-8.73 -7.14,-15.88 -15.87,-15.88zm47.63 -63.51l-15.88 0c-8.73,0 -15.88,7.14 -15.88,15.88 0,8.73 7.15,15.88 15.88,15.88l15.88 0c8.74,0 15.88,-7.15 15.88,-15.88 0,-8.74 -7.14,-15.88 -15.88,-15.88zm-174.16 63.51l15.79 0c8.73,0 15.46,7.17 15.46,15.88 0,8.71 -6.91,15.91 -15.63,15.91l-15.8 0c-8.72,0 -16.12,-7.19 -16.12,-15.91 0,-8.71 7.56,-15.88 16.3,-15.88zm17.5 -63.5l91.8 0c9.83,0 17.22,7.15 17.22,15.87 0,8.72 -8.06,15.71 -17.87,15.71l-91.29 0c-9.81,0 -17.87,-6.99 -17.87,-15.71 0,-8.72 8.19,-15.87 18.01,-15.87zm79.26 -63.41l43.62 0c9.84,0 17.88,7.14 17.88,15.85l0 0c0,8.71 -8.05,16.14 -17.88,16.14l-43.62 0c-9.82,0 -17.87,-7.13 -17.87,-15.85l0 0c0,-8.72 8.04,-16.14 17.87,-16.14z"/>
  <polygon class="fil1" points="433.21,256.27 493.01,111.36 730.45,603.41 583.06,603.54 "/>
  <polygon class="fil2" points="539.9,127.03 603.41,0 478.11,0 481.16,6.44 555.77,15.88 535.61,117.75 "/>
  <g id="_2013815838864">
   <path class="fil3" d="M850.16 298.62c-5.99,-6.18 -12.04,-10.76 -18.16,-13.77 -6.16,-2.98 -12.6,-4.48 -19.34,-4.48 -11.69,0 -21.26,4.05 -28.69,12.16 -7.46,8.11 -11.17,18.55 -11.17,31.23 0,12.73 3.68,23.03 11.07,30.91 7.36,7.88 16.97,11.84 28.82,11.84 7,0 13.97,-1.48 20.94,-4.42 6.96,-2.94 13.9,-7.35 20.83,-13.24l-2.11 36.89c-5.93,4.02 -12.38,7.09 -19.41,9.19 -7.03,2.12 -14.33,3.17 -21.91,3.17 -8.14,0 -15.92,-1.28 -23.41,-3.83 -7.46,-2.55 -14.36,-6.34 -20.64,-11.31 -8.93,-7.03 -15.73,-15.6 -20.48,-25.74 -4.72,-10.11 -7.1,-21.16 -7.1,-33.09 0,-10.31 1.76,-19.95 5.24,-28.95 3.52,-8.99 8.6,-16.97 15.27,-23.87 6.74,-6.9 14.52,-12.16 23.38,-15.86 8.82,-3.66 18.13,-5.49 27.93,-5.49 7.78,0 15.18,1.08 22.24,3.27 7.07,2.16 13.81,5.46 20.22,9.87l-3.52 35.52zm43.37 25.51c0,12.06 3.51,22.2 10.54,30.34 7.04,8.15 15.7,12.23 25.99,12.23 10.35,0 19.04,-4.05 26.04,-12.16 7,-8.15 10.49,-18.28 10.49,-30.41 0,-12.2 -3.49,-22.41 -10.49,-30.55 -7,-8.14 -15.69,-12.23 -26.04,-12.23 -10.29,0 -18.95,4.09 -25.99,12.23 -7.03,8.14 -10.54,18.35 -10.54,30.55zm-34 0c0,-10.31 1.76,-19.92 5.31,-28.88 3.52,-8.99 8.73,-17.01 15.6,-24.1 6.48,-6.77 14.03,-11.97 22.62,-15.57 8.57,-3.63 17.59,-5.43 27,-5.43 9.41,0 18.42,1.83 27.05,5.46 8.63,3.63 16.28,8.9 22.96,15.73 6.74,6.84 11.85,14.72 15.3,23.71 3.48,8.96 5.21,18.68 5.21,29.08 0,8.69 -1.21,16.87 -3.62,24.52 -2.44,7.65 -6.02,14.65 -10.8,21 -6.74,8.99 -15.01,15.99 -24.85,20.96 -9.83,5 -20.25,7.49 -31.25,7.49 -9.35,0 -18.3,-1.83 -26.87,-5.46 -8.56,-3.63 -16.15,-8.9 -22.75,-15.73 -6.87,-7.07 -12.08,-15.08 -15.6,-24.01 -3.55,-8.89 -5.31,-18.51 -5.31,-28.77zm144.95 69.45l28.72 -143.43 2.37 0 52.2 90.46 49.22 -90.46 2.48 0 28.91 143.43 -31.39 0 -11.72 -63.44 -37.11 68.54 -2.22 0 -39.85 -69.49 -12.15 64.39 -29.46 0zm213.71 -113.41l-4.49 0 0 37.09 5.99 0c8.33,0 14.68,-1.61 19.08,-4.84 4.39,-3.24 6.57,-7.88 6.57,-13.93 0,-6.35 -2.14,-10.96 -6.48,-13.9 -4.32,-2.95 -11.23,-4.42 -20.67,-4.42zm-37.51 113.41l0 -138.91 35.59 0c10.94,0 19.63,0.78 26.04,2.38 6.42,1.6 12.12,4.29 17.1,8.05 5.14,3.76 9.15,8.47 11.98,14.13 2.83,5.65 4.23,11.64 4.23,17.95 0,14.06 -4.98,25.18 -14.94,33.42 -9.93,8.24 -23.44,12.36 -40.5,12.36 -1.76,0 -3.1,0 -4.01,-0.03 -0.88,-0.03 -1.72,-0.1 -2.47,-0.16l0 50.81 -33.02 0zm145.11 -113.6l-5.44 0 0 38.46 6.97 0c8.34,0 14.68,-1.71 19.08,-5.07 4.39,-3.37 6.58,-8.25 6.58,-14.56 0,-6.64 -2.12,-11.41 -6.39,-14.39 -4.26,-2.97 -11.2,-4.44 -20.8,-4.44zm-37.48 113.6l0 -138.91 35.56 0c11.39,0 20.22,0.75 26.5,2.25 6.29,1.51 11.82,3.99 16.67,7.52 5.15,3.7 9.15,8.28 11.98,13.74 2.84,5.46 4.24,11.21 4.24,17.27 0,8.76 -2.22,16.41 -6.65,22.99 -4.42,6.57 -10.8,11.7 -19.14,15.43l42.2 59.71 -37.71 0 -36.92 -54.54 -4.69 0 0 54.54 -32.04 0zm146.77 -44.14l36.34 0 -17.94 -43.5 -18.4 43.5zm-51.77 44.14l70.56 -143.23 2.08 0 69 143.23 -34.55 0 -8.76 -20.21 -56.13 0 -8.95 20.21 -33.25 0z"/>
   <path class="fil0" d="M1557.59 349.44l36.34 0 -17.94 -43.5 -18.4 43.5zm-51.76 44.14l70.55 -143.23 2.09 0 68.99 143.23 -34.55 0 -8.76 -20.21 -56.13 0 -8.95 20.21 -33.24 0zm57.04 -154.41l19.47 -33.17 21.16 0 -28.13 33.17 -12.5 0zm204.56 77.3l0 67.53c-9.28,4.68 -18.33,8.18 -27.12,10.53 -8.83,2.39 -17.36,3.57 -25.63,3.57 -21.06,0 -38.51,-6.97 -52.42,-20.93 -13.9,-13.97 -20.83,-31.59 -20.83,-52.85 0,-21.48 7.03,-39.24 21.13,-53.27 14.09,-14.06 31.9,-21.09 53.49,-21.09 8.14,0 15.89,1.11 23.28,3.36 7.36,2.23 14.46,5.63 21.26,10.14l-3.55 34.76c-6.41,-6.5 -12.79,-11.28 -19.14,-14.29 -6.38,-3.04 -13.06,-4.54 -20.06,-4.54 -12.4,0 -22.66,4.15 -30.8,12.49 -8.14,8.34 -12.21,18.77 -12.21,31.26 0,13.18 3.94,23.91 11.79,32.25 7.84,8.34 17.97,12.49 30.34,12.49 2.87,0 5.77,-0.26 8.7,-0.75 2.93,-0.52 5.96,-1.24 9.15,-2.23l0 -20.17 -26.18 0 0 -28.26 58.8 0zm19.98 77.11l0 -138.91 33.02 0 0 138.91 -33.02 0zm57.46 0l0 -138.91 33.01 0 0 109.09 53.92 0 0 29.82 -86.93 0z"/>
  </g>
 </g>
</svg>
