<?xml version="1.0" encoding="UTF-8"?>
<!DOCTYPE svg PUBLIC "-//W3C//DTD SVG 1.1//EN" "http://www.w3.org/Graphics/SVG/1.1/DTD/svg11.dtd">
<!-- Creator: CorelDRAW -->
<svg xmlns="http://www.w3.org/2000/svg" xml:space="preserve" width="300px" height="300px" version="1.1" style="shape-rendering:geometricPrecision; text-rendering:geometricPrecision; image-rendering:optimizeQuality; fill-rule:evenodd; clip-rule:evenodd"
viewBox="0 0 18.28 18.28"
 xmlns:xlink="http://www.w3.org/1999/xlink"
 xmlns:xodm="http://www.corel.com/coreldraw/odm/2003">
 <defs>
  <style type="text/css">
   <![CDATA[
    .fil0 {fill:#343C80}
    .fil3 {fill:#EC008B}
    .fil1 {fill:#FEFEFE;fill-rule:nonzero}
    .fil2 {fill:#B6D9F2;fill-rule:nonzero}
   ]]>
  </style>
 </defs>
 <g id="Camada_x0020_1">
  <metadata id="CorelCorpID_0Corel-Layer"/>
  <rect class="fil0" width="18.28" height="18.28" rx="1.3" ry="1.59"/>
  <g id="_2297179522832">
   <path class="fil1" d="M5.98 15.13l-2.83 0 0 0c0.17,0 0.31,-0.14 0.31,-0.31 0,-0.18 -0.14,-0.32 -0.31,-0.32l-0.07 0 0.07 0c-0.18,0 -0.32,-0.14 -0.32,-0.32 0,-0.17 0.14,-0.31 0.32,-0.31l0.06 0c0.02,0 0.03,0 0.04,0l0.01 0c0.02,0 0.03,0 0.04,0l0 0 0 0 0 0 0 0 0 0 0.24 0 0.24 0c0.17,0 0.31,-0.14 0.31,-0.32 0,-0.17 -0.14,-0.31 -0.31,-0.31 -0.11,0 0.1,0 0,0 -0.18,0 -0.32,-0.14 -0.32,-0.32 0,-0.17 0.14,-0.31 0.32,-0.31 0.31,0 0.31,0 0.63,0 0.17,0 0.31,-0.14 0.31,-0.32 0,-0.17 -0.14,-0.31 -0.31,-0.31 -0.42,0 -0.51,0 -0.93,0 0,0 -0.01,0 -0.02,0l-0.63 0c-0.17,0 -0.32,-0.15 -0.32,-0.32 0,-0.17 0.15,-0.31 0.32,-0.31l0.63 0c0.01,0 0.02,-0.01 0.03,0l1.34 0 0.01 0 0.08 0c0.02,0 0.03,0 0.04,0l0.08 0c0.17,0 0.31,-0.15 0.31,-0.32 0,-0.17 -0.14,-0.32 -0.31,-0.32l-0.32 0c0,0 -0.01,0.01 -0.01,0.01l-0.26 0c-0.01,0 -0.01,0 -0.02,-0.01l-0.02 0c-0.18,0 -0.32,-0.14 -0.32,-0.31 0,-0.17 0.14,-0.32 0.32,-0.32l0.04 0 0.01 0c0.46,0 0.76,0 1.22,0 0.11,0 0.21,-0.06 0.26,-0.16l0 0 0.01 0c0.01,-0.02 0.01,-0.04 0.02,-0.06l0 0 0 0c0.01,-0.03 0.01,-0.06 0.01,-0.09 0,-0.17 -0.14,-0.32 -0.31,-0.32l-0.32 0c-0.19,0 -0.31,-0.14 -0.31,-0.31 0,-0.18 0.13,-0.32 0.33,-0.32l0.42 0 0 0 0.17 0c0.19,0 0.34,-0.13 0.34,-0.3 0,-0.17 -0.16,-0.32 -0.35,-0.32l0 0 -1.19 0c-0.19,0 -0.35,-0.14 -0.35,-0.32 0,-0.17 0.16,-0.32 0.36,-0.32l2.16 0 2.18 -4.42 0.21 0 0.9 1.9 -4.24 10.09zm-5.04 -1.26l0 0c-0.18,0 -0.32,0.14 -0.32,0.31l0 0c0,0.18 0.14,0.32 0.32,0.32l0 0c0.17,0 0.31,-0.14 0.31,-0.32l0 0c0,-0.17 -0.14,-0.31 -0.31,-0.31zm1.26 0l-0.32 0c-0.17,0 -0.31,0.14 -0.31,0.31 0,0.18 0.14,0.32 0.31,0.32l0.32 0c0.17,0 0.31,-0.14 0.31,-0.32 0,-0.17 -0.14,-0.31 -0.31,-0.31zm0.63 -1.26l-1.89 0c-0.17,0 -0.32,0.14 -0.32,0.31 0,0.18 0.15,0.32 0.32,0.32l1.89 0c0.17,0 0.32,-0.14 0.32,-0.32 0,-0.17 -0.15,-0.31 -0.32,-0.31zm-0.95 -1.26l-0.63 0c-0.17,0 -0.31,0.14 -0.31,0.31 0,0.17 0.14,0.32 0.31,0.32l0.63 0c0.18,0 0.32,-0.15 0.32,-0.32 0,-0.17 -0.14,-0.31 -0.32,-0.31zm1.58 -1.27l-0.02 0 -0.01 0 -1.19 0 -0.01 0 -0.03 0c-0.13,0 -0.25,0.09 -0.3,0.21 -0.01,0.03 -0.02,0.07 -0.02,0.11 0,0.04 0.01,0.08 0.03,0.12 0.05,0.11 0.16,0.19 0.29,0.19l0.02 0c0.01,0.01 0.01,0.01 0.02,0.01l1.19 0c0,0 0.01,0 0.02,-0.01l0.01 0c0.17,0 0.32,-0.14 0.32,-0.31 0,-0.17 -0.15,-0.32 -0.32,-0.32zm0.95 -1.26l-0.32 0c-0.17,0 -0.31,0.14 -0.31,0.32 0,0.17 0.14,0.31 0.31,0.31l0.32 0c0.17,0 0.31,-0.14 0.31,-0.31 0,-0.18 -0.14,-0.32 -0.31,-0.32zm-3.46 1.26l0.31 0c0.17,0 0.31,0.15 0.31,0.32 0,0.17 -0.14,0.32 -0.31,0.32l-0.32 0c-0.17,0 -0.32,-0.15 -0.32,-0.32 0,-0.17 0.15,-0.32 0.33,-0.32zm0.34 -1.26l1.83 0c0.19,0 0.34,0.14 0.34,0.32 0,0.17 -0.16,0.31 -0.35,0.31l-1.82 0c-0.19,0 -0.35,-0.14 -0.35,-0.31 0,-0.18 0.16,-0.32 0.35,-0.32zm1.58 -1.26l0.87 0c0.19,0 0.35,0.14 0.35,0.32l0 0c0,0.17 -0.16,0.32 -0.35,0.32l-0.87 0c-0.2,0 -0.36,-0.14 -0.36,-0.32l0 0c0,-0.17 0.16,-0.32 0.36,-0.32z"/>
   <polygon class="fil2" points="9.23,8.24 10.41,5.36 15.13,15.13 12.2,15.13 "/>
   <polygon class="fil3" points="11.35,5.67 12.61,3.14 10.12,3.14 10.18,3.27 11.66,3.46 11.26,5.48 "/>
  </g>
 </g>
</svg>
