<?xml version="1.0" encoding="UTF-8"?>
<!DOCTYPE svg PUBLIC "-//W3C//DTD SVG 1.1//EN" "http://www.w3.org/Graphics/SVG/1.1/DTD/svg11.dtd">
<!-- Creator: CorelDRAW -->
<svg xmlns="http://www.w3.org/2000/svg" xml:space="preserve" width="77.8703mm" height="69.0036mm" version="1.1" style="shape-rendering:geometricPrecision; text-rendering:geometricPrecision; image-rendering:optimizeQuality; fill-rule:evenodd; clip-rule:evenodd"
viewBox="0 0 6085.24 5392.34"
 xmlns:xlink="http://www.w3.org/1999/xlink"
 xmlns:xodm="http://www.corel.com/coreldraw/odm/2003">
 <defs>
  <style type="text/css">
   <![CDATA[
    .fil2 {fill:#EC008B}
    .fil0 {fill:#FEFEFE;fill-rule:nonzero}
    .fil4 {fill:#FEFEFE;fill-rule:nonzero}
    .fil1 {fill:#B6D9F2;fill-rule:nonzero}
    .fil3 {fill:#04A9E2;fill-rule:nonzero}
   ]]>
  </style>
 </defs>
 <g id="Camada_x0020_1">
  <metadata id="CorelCorpID_0Corel-Layer"/>
  <path class="fil0" d="M1989.36 4445.62l-1053.19 1.84 2.16 -0.66c63.38,-1.17 114.86,-53.35 114.86,-117.01 0,-64.37 -52.65,-117.02 -117.02,-117.02l-25.91 0 25.89 0c-64.36,0 -117.01,-52.65 -117.01,-117.02 0,-64.38 52.65,-117.02 117.01,-117.02l25.41 0c4.92,-0.62 9.92,-0.92 15,-0.92l3.39 0c4.44,0.56 8.96,0.88 13.53,0.92l0.23 0 0.24 0 0.23 0 0.24 0 0.23 0 87.81 0 87.76 0c64.34,0 117.01,-52.65 117.01,-117.02 0,-64.37 -52.67,-117.02 -117.01,-117.02 -39,0 39,0 0,0 -64.4,0 -117.04,-52.65 -117.04,-117.02 0,-64.37 52.64,-117.02 117.04,-117.02 117.01,0 116.99,0 234.01,0 64.39,0 117.04,-52.65 117.04,-117.02 0,-64.37 -52.65,-117.02 -117.04,-117.02 -152.78,0 -189.18,-0.34 -342.58,-0.34 -2.81,0.21 -5.63,0.31 -8.48,0.31l-234.04 0c-64.35,0 -117.01,-52.65 -117.01,-117.02 0,-64.37 52.65,-116.99 117.01,-116.99l234.04 0c4.27,0 8.48,-0.45 12.63,0l497.22 0 0.56 0 32.88 0c4.83,0 9.58,0.41 14.29,0l27.54 0c64.38,0 117.04,-52.62 117.04,-116.98 0,-64.38 -52.65,-117.02 -117.04,-117.02l-117.01 0c-2.01,0 -4.02,0.05 -5.99,0.15l-94.51 0c-2.45,0 -4.89,-0.07 -7.31,-0.18l-9.21 0c-64.39,0 -117.02,-52.65 -117.02,-117.02 0,-64.37 52.63,-117.02 117.02,-117.02l15.72 0 3.87 -0.05c168.96,0 282.59,0 451.55,0 43.69,0 78.86,-24.07 98.96,-59.75l0.09 -0.13 0.73 -1.31c3.71,-6.6 6.71,-13.61 8.9,-20.97l0.3 -0.98 0.12 -0.41c3.16,-10.57 4.86,-21.74 4.86,-33.31 0,-64.37 -52.65,-117.02 -117.04,-117.02l-117 0.02c-72.25,0 -117.02,-52.9 -117.02,-117.16 0,-64.24 49.37,-116.91 121.82,-116.91l156.8 0 0.58 0 61.96 0c72.44,0 126.92,-49.33 126.92,-113.58 0,-63.33 -57.56,-116.45 -128.57,-117.96l0.59 0 -442.44 0c-72.35,0 -131.71,-52.57 -131.71,-116.83 0,-64.24 60.95,-118.85 133.39,-118.93l802.78 -0.89 810.07 -1638.3 77.47 0 333.92 702.12 -1572.53 3743.49zm-1872.32 -466.9l-0.03 0c-64.35,0 -117.01,52.65 -117.01,117.01l0 0.03c0,64.35 52.65,117 117.01,117l0.03 0c64.35,0 117,-52.65 117,-117l0 -0.03c0,-64.36 -52.65,-117.01 -117,-117.01zm468.05 0l-117.01 0c-64.38,0 -117.02,52.65 -117.02,117.02 0,64.37 52.64,117.02 117.02,117.02l117.01 0c64.38,0 117.03,-52.65 117.03,-117.02 0,-64.38 -52.65,-117.02 -117.03,-117.02zm234.05 -468.09l-701.51 0c-64.34,0 -117.02,52.65 -117.02,117.02 0,64.37 52.69,117.02 117.02,117.02l701.51 0c64.34,0 117.02,-52.65 117.02,-117.02 0,-64.37 -52.69,-117.02 -117.02,-117.02zm-351.08 -468.09l-234.05 0c-64.34,0 -117,52.62 -117,116.99 0,64.37 52.65,117.02 117,117.02l234.05 0c64.38,0 117.04,-52.65 117.04,-117.02 0,-64.37 -52.69,-116.99 -117.04,-116.99zm585.13 -468.09l-7.76 0 -3.88 -0.05 -440.07 0 -3.88 0.05 -12.53 0c-49.54,0 -92.14,31.21 -109.13,74.96 -5.98,13.08 -9.29,27.27 -9.29,42.07 0,15.82 3.71,30.96 10.38,44.79 17.67,42.31 59.54,72.23 108.04,72.23l7.82 0c2.41,0.11 4.87,0.18 7.31,0.18l440.07 0c2.45,0 4.88,-0.07 7.3,-0.18l5.6 0c64.35,0 117.01,-52.65 117.01,-117.02 0,-64.37 -52.66,-117.02 -117.01,-117.02zm351.03 -468.08l-117 0c-64.38,0 -117.02,52.65 -117.02,117.02 0,64.38 52.64,117.02 117.02,117.02l117 0c64.39,0 117.04,-52.65 117.04,-117.02 0,-64.37 -52.65,-117.02 -117.04,-117.02zm-1283.48 468.03l116.37 0c64.37,0 113.94,52.87 113.94,117.07 0,64.2 -50.9,117.2 -115.2,117.2l-116.37 0c-64.31,0 -118.84,-52.96 -118.84,-117.2 0,-64.24 55.73,-117.07 120.1,-117.07zm129.03 -467.92l676.46 0c72.46,0 126.94,52.65 126.94,116.91 0,64.26 -59.42,115.83 -131.74,115.83l-672.72 0c-72.28,0 -131.71,-51.57 -131.71,-115.83 0,-64.25 60.33,-116.91 132.76,-116.91zm584.09 -467.3l321.46 0c72.46,0 131.72,52.62 131.72,116.8l0 0.02c0,64.2 -59.33,118.95 -131.72,118.95l-321.46 0c-72.4,0 -131.75,-52.55 -131.75,-116.81l0 -0.02c0,-64.24 59.28,-118.93 131.75,-118.93z"/>
  <polygon class="fil1" points="3192.49,1888.54 3633.17,820.63 5382.97,4446.8 4296.78,4447.73 "/>
  <polygon class="fil2" points="3978.72,936.17 4446.81,0 3523.36,0 3545.87,47.47 4095.73,117.02 3947.12,867.78 "/>
  <g id="_2261655042672">
   <path class="fil3" d="M777.57 4901.31c-29.39,-30.33 -59.12,-52.8 -89.15,-67.56 -30.2,-14.61 -61.83,-21.99 -94.91,-21.99 -57.35,0 -104.32,19.9 -140.76,59.7 -36.59,39.8 -54.8,90.99 -54.8,153.25 0,62.42 18.06,112.98 54.33,151.65 36.1,38.67 83.24,58.09 141.4,58.09 34.35,0 68.54,-7.22 102.74,-21.66 34.18,-14.44 68.21,-36.1 102.25,-64.99l-10.39 181.02c-29.08,19.73 -60.71,34.82 -95.22,45.09 -34.51,10.43 -70.3,15.57 -107.53,15.57 -39.94,0 -78.12,-6.26 -114.87,-18.78 -36.59,-12.51 -70.46,-31.13 -101.29,-55.52 -43.78,-34.5 -77.17,-76.54 -100.5,-126.29 -23.16,-49.58 -34.83,-103.82 -34.83,-162.39 0,-50.54 8.63,-97.89 25.73,-142.01 17.25,-44.13 42.18,-83.29 74.93,-117.15 33.06,-33.86 71.25,-59.7 114.71,-77.83 43.3,-17.97 88.99,-26.96 137.08,-26.96 38.18,0 74.46,5.3 109.12,16.04 34.67,10.6 67.74,26.8 99.21,48.47l-17.25 174.27zm212.78 125.17c0,59.21 17.25,108.96 51.76,148.91 34.52,39.96 77.01,60.02 127.5,60.02 50.8,0 93.46,-19.9 127.82,-59.7 34.35,-39.96 51.44,-89.7 51.44,-149.24 0,-59.85 -17.09,-109.92 -51.44,-149.88 -34.35,-39.96 -77.01,-60.02 -127.82,-60.02 -50.49,0 -92.99,20.06 -127.5,60.02 -34.5,39.96 -51.76,90.03 -51.76,149.88zm-166.8 0c0,-50.54 8.63,-97.73 26.05,-141.69 17.25,-44.13 42.82,-83.44 76.53,-118.27 31.8,-33.22 68.86,-58.73 111.04,-76.39 42.02,-17.81 86.28,-26.64 132.45,-26.64 46.18,0 90.43,8.99 132.77,26.8 42.33,17.81 79.88,43.64 112.64,77.18 33.06,33.54 58.15,72.21 75.09,116.34 17.09,43.96 25.56,91.63 25.56,142.66 0,42.68 -5.91,82.8 -17.74,120.35 -11.98,37.55 -29.55,71.89 -53.04,103.03 -33.07,44.13 -73.65,78.47 -121.9,102.86 -48.26,24.55 -99.38,36.75 -153.38,36.75 -45.85,0 -89.79,-8.99 -131.81,-26.8 -42.03,-17.81 -79.25,-43.64 -111.68,-77.18 -33.71,-34.66 -59.27,-73.97 -76.53,-117.78 -17.42,-43.65 -26.05,-90.83 -26.05,-141.22zm711.26 340.84l140.92 -703.83 11.66 0 256.11 443.87 241.57 -443.87 12.14 0 141.87 703.83 -154.02 0 -57.52 -311.32 -182.14 336.35 -10.86 0 -195.56 -341 -59.59 315.97 -144.59 0zm1048.69 -556.52l-22.05 0 0 181.98 29.41 0c40.9,0 72.05,-7.87 93.62,-23.75 21.57,-15.89 32.27,-38.67 32.27,-68.36 0,-31.13 -10.54,-53.76 -31.79,-68.21 -21.25,-14.44 -55.12,-21.66 -101.46,-21.66zm-184.06 556.52l0 -681.68 174.63 0c53.68,0 96.34,3.85 127.81,11.71 31.48,7.86 59.44,21.02 83.88,39.48 25.25,18.45 44.89,41.56 58.8,69.32 13.9,27.76 20.77,57.12 20.77,88.09 0,69 -24.44,123.56 -73.33,164 -48.73,40.44 -115.04,60.66 -198.76,60.66 -8.63,0 -15.18,0 -19.65,-0.16 -4.31,-0.16 -8.46,-0.48 -12.14,-0.8l0 249.37 -162 0zm712.06 -557.48l-26.69 0 0 188.71 34.2 0c40.9,0 72.05,-8.35 93.62,-24.87 21.57,-16.53 32.27,-40.44 32.27,-71.41 0,-32.58 -10.39,-56.01 -31.31,-70.6 -20.93,-14.61 -54.96,-21.83 -102.09,-21.83zm-183.9 557.48l0 -681.68 174.47 0c55.92,0 99.22,3.69 130.05,11.07 30.84,7.38 58,19.58 81.8,36.91 25.25,18.13 44.89,40.6 58.8,67.4 13.91,26.8 20.78,55.04 20.78,84.73 0,43 -10.87,80.55 -32.6,112.81 -21.72,32.25 -53.04,57.45 -93.94,75.74l207.06 293.02 -185.01 0 -181.18 -267.67 -23.01 0 0 267.67 -157.21 0zm720.21 -216.64l178.31 0 -88.04 -213.42 -90.27 213.42zm-254.03 216.64l346.22 -702.87 10.22 0 338.55 702.87 -169.51 0 -42.97 -99.17 -275.45 0 -43.93 99.17 -163.12 0z"/>
   <path class="fil4" d="M4248.97 5150.68l178.31 0 -88.04 -213.42 -90.27 213.42zm-254.03 216.64l346.22 -702.87 10.23 0 338.54 702.87 -169.51 0 -42.98 -99.17 -275.44 0 -43.94 99.17 -163.12 0zm279.92 -757.74l95.54 -162.72 103.85 0 -138.04 162.72 -61.34 0zm1003.79 379.35l0 331.37c-45.54,22.95 -89.96,40.12 -133.09,51.68 -43.3,11.71 -85.16,17.49 -125.74,17.49 -103.37,0 -189.01,-34.18 -257.22,-102.7 -68.22,-68.53 -102.25,-155.02 -102.25,-259.33 0,-105.43 34.51,-192.57 103.69,-261.41 69.17,-69 156.57,-103.5 262.5,-103.5 39.94,0 77.97,5.45 114.23,16.53 36.11,10.91 70.93,27.6 104.33,49.75l-17.42 170.58c-31.47,-31.93 -62.78,-55.36 -93.95,-70.12 -31.31,-14.93 -64.06,-22.31 -98.41,-22.31 -60.88,0 -111.2,20.38 -151.15,61.31 -39.94,40.92 -59.91,92.11 -59.91,153.41 0,64.67 19.33,117.3 57.84,158.22 38.5,40.92 88.19,61.31 148.91,61.31 14.06,0 28.27,-1.29 42.65,-3.7 14.38,-2.56 29.24,-6.1 44.9,-10.91l0 -99.01 -128.46 0 0 -138.65 288.55 0zm98.05 378.39l0 -681.68 162.01 0 0 681.68 -162.01 0zm281.95 0l0 -681.68 162 0 0 535.33 264.59 0 0 146.35 -426.59 0z"/>
  </g>
 </g>
</svg>
