<?xml version="1.0" encoding="UTF-8"?>
<!DOCTYPE svg PUBLIC "-//W3C//DTD SVG 1.1//EN" "http://www.w3.org/Graphics/SVG/1.1/DTD/svg11.dtd">
<!-- Creator: CorelDRAW -->
<svg xmlns="http://www.w3.org/2000/svg" xml:space="preserve" width="2249px" height="1968px" version="1.1" style="shape-rendering:geometricPrecision; text-rendering:geometricPrecision; image-rendering:optimizeQuality; fill-rule:evenodd; clip-rule:evenodd"
viewBox="0 0 4351.14 3807.96"
 xmlns:xlink="http://www.w3.org/1999/xlink"
 xmlns:xodm="http://www.corel.com/coreldraw/odm/2003">
 <defs>
  <style type="text/css">
   <![CDATA[
    .fil0 {fill:none}
    .fil1 {fill:#1E2A7B}
   ]]>
  </style>
 </defs>
 <g id="Camada_x0020_1">
  <metadata id="CorelCorpID_0Corel-Layer"/>
  <path class="fil0" d="M3324.45 3807.96l-2297.47 0c-80.71,0 -146.75,-66.04 -146.75,-146.74l0 -3514.47c0,-80.69 66.05,-146.74 146.75,-146.74l161.7 0 524.89 0 1356.41 0 244.19 0c115.45,7.95 158.04,88.95 158.04,120.23l246.22 -10.05 27.39 0 -0.28 0 37.11 0c34.8,0 63.29,25.88 63.29,56.81 0,30.93 -28.49,56.22 -63.29,56.22l-92.82 0 -0.28 0 -69.46 0c-34.81,0 -63.29,25.87 -63.29,56.8 0,30.92 28.48,56.24 63.29,56.24l13.74 0 -0.28 0 11.56 0c34.81,0 63.3,25.85 63.3,56.78 0,30.94 -28.49,56.24 -63.3,56.24l-67.29 0 -0.26 0 -112.92 0c-34.81,0 -63.29,25.86 -63.29,56.79 0,30.94 28.48,56.24 63.29,56.24l57.19 0 -0.26 0 273.15 0.55c34.8,0 63.29,25.3 63.29,56.23l0 0.01c0,30.93 -28.49,56.24 -63.29,56.24l-328.88 0 -0.28 0 -51.99 0c-34.82,0 -63.29,25.84 -63.29,56.78l0 0.01c0,29.83 26.5,54.43 59.61,56.13l-0.33 0 142.57 0c34.81,0 63.3,25.96 63.3,56.89l0 0c0,30.93 -28.49,56.23 -63.3,56.23l-198.29 0 -0.27 0 -38.34 0c-34.82,0 -63.29,25.87 -63.29,56.8 0,25.89 19.95,47.82 46.86,54.3l-1.22 0 93.88 0c34.82,0 63.3,27.8 63.3,58.72 0,30.93 -28.48,56.24 -63.3,56.24l-149.61 0 -0.28 0 -54.19 0c-34.81,0 -63.29,25.86 -63.29,56.79 0,30.49 27.66,55.49 61.77,56.22l-0.29 0 272.68 0c34.82,0 63.3,25.87 63.3,56.8 0,27.33 -22.24,50.26 -51.43,55.23l0 0 1.07 2308.74c0,80.71 -66.03,146.74 -146.74,146.74zm666.46 -3579.28l-22.11 0c-34.79,0 -63.29,-25.28 -63.29,-56.22 0,-30.93 28.5,-56.23 63.29,-56.23l22.11 0c34.82,0 63.3,25.3 63.3,56.23 0,30.94 -28.48,56.22 -63.3,56.22zm185.85 674.89l-42.37 0c-34.8,0 -63.29,-25.31 -63.29,-56.24 0,-30.93 28.49,-56.23 63.29,-56.23l42.37 0c34.83,0 63.31,25.3 63.31,56.23 0,30.93 -28.48,56.24 -63.31,56.24zm-81.1 224.96l-330.93 0c-34.82,0 -63.3,-25.3 -63.3,-56.23 0,-30.95 28.48,-56.24 63.3,-56.24l330.93 0c34.81,0 63.29,25.29 63.29,56.24 0,30.93 -28.48,56.23 -63.29,56.23zm192.18 -899.85l-108.52 0c-34.83,0 -63.31,-25.28 -63.31,-56.22 0,-30.93 28.48,-56.23 63.31,-56.23l108.52 0c34.81,0 63.3,25.3 63.3,56.23 0,30.94 -28.49,56.22 -63.3,56.22zm-98.35 224.97l-369.36 0c-34.82,0 -63.3,-25.29 -63.3,-56.23l0 -0.01c0,-30.94 28.48,-56.24 63.3,-56.24l369.36 0c34.82,0 63.3,25.3 63.3,56.24l0 0.01c0,30.94 -28.48,56.23 -63.3,56.23zm-98.34 224.96l-108.52 0c-34.83,0 -63.3,-25.31 -63.3,-56.24 0,-30.93 28.47,-56.23 63.3,-56.23l108.52 0c34.83,0 63.3,25.3 63.3,56.23 0,30.93 -28.47,56.24 -63.3,56.24zm-161.79 224.96l-197.11 0c-34.82,0 -63.28,-25.31 -63.28,-56.24 0,-30.93 28.46,-56.23 63.28,-56.23l197.11 0c34.82,0 63.31,25.3 63.31,56.23 0,30.93 -28.49,56.24 -63.31,56.24zm-354.11 224.96l-17.99 0c-34.82,0 -63.31,-25.3 -63.31,-56.23 0,-30.95 28.49,-56.24 63.31,-56.24l17.99 0c34.81,0 63.29,25.29 63.29,56.24 0,30.93 -28.48,56.23 -63.29,56.23zm220.87 224.96l-138.21 0c-34.81,0 -63.29,-25.31 -63.29,-56.24 0,-30.93 28.48,-56.23 63.29,-56.23l138.21 0c34.83,0 63.31,25.3 63.31,56.23 0,30.93 -28.48,56.24 -63.31,56.24z"/>
  <path class="fil1" d="M1026.69 0l2297.47 0c80.71,0 146.75,66.04 146.75,146.74l0 3514.47c0,80.69 -66.05,146.74 -146.75,146.74l-161.7 0 -524.89 0 -1356.41 0 -244.19 0c-115.45,-7.96 -158.04,-88.95 -158.04,-120.23l-246.22 10.04 -27.39 0 0.28 0 -37.11 0c-34.81,0 -63.29,-25.87 -63.29,-56.8 0,-30.93 28.48,-56.23 63.29,-56.23l92.82 0 0.28 0 69.46 0c34.81,0 63.28,-25.86 63.28,-56.79 0,-30.92 -28.47,-56.24 -63.28,-56.24l-13.74 0 0.28 0 -11.56 0c-34.82,0 -63.3,-25.85 -63.3,-56.79 0,-30.93 28.48,-56.23 63.3,-56.23l67.29 0 0.26 0 112.92 0c34.81,0 63.29,-25.86 63.29,-56.79 0,-30.94 -28.48,-56.24 -63.29,-56.24l-57.19 0 0.26 0 -273.15 -0.56c-34.8,0 -63.29,-25.29 -63.29,-56.22l0 -0.02c0,-30.92 28.49,-56.23 63.29,-56.23l328.88 0 0.28 0 51.99 0c34.81,0 63.29,-25.85 63.29,-56.79l0 0c0,-29.84 -26.5,-54.43 -59.61,-56.13l0.33 0 -142.57 0c-34.81,0 -63.3,-25.96 -63.3,-56.89l0 -0.01c0,-30.92 28.49,-56.22 63.3,-56.22l198.28 0 0.28 0 38.34 0c34.82,0 63.29,-25.87 63.29,-56.8 0,-25.89 -19.95,-47.82 -46.86,-54.3l1.22 0 -93.89 0c-34.81,0 -63.29,-27.8 -63.29,-58.73 0,-30.92 28.48,-56.23 63.29,-56.23l149.62 0 0.27 0 54.19 0c34.82,0 63.3,-25.86 63.3,-56.79 0,-30.49 -27.66,-55.49 -61.77,-56.22l0.28 0 -272.67 0c-34.82,0 -63.3,-25.87 -63.3,-56.8 0,-27.33 22.24,-50.26 51.42,-55.23l0 0 -1.06 -2308.74c0,-80.71 66.03,-146.74 146.74,-146.74zm-666.46 3579.27l22.1 0c34.8,0 63.29,25.29 63.29,56.23 0,30.93 -28.49,56.23 -63.29,56.23l-22.1 0c-34.82,0 -63.3,-25.3 -63.3,-56.23 0,-30.94 28.48,-56.23 63.3,-56.23zm-185.85 -674.88l42.37 0c34.8,0 63.29,25.31 63.29,56.23 0,30.93 -28.49,56.24 -63.29,56.24l-42.37 0c-34.83,0 -63.31,-25.31 -63.31,-56.24 0,-30.92 28.48,-56.23 63.31,-56.23zm81.1 -224.96l330.93 0c34.82,0 63.3,25.3 63.3,56.23 0,30.94 -28.48,56.23 -63.3,56.23l-330.93 0c-34.81,0 -63.29,-25.29 -63.29,-56.23 0,-30.93 28.48,-56.23 63.29,-56.23zm-192.18 899.84l108.52 0c34.83,0 63.31,25.29 63.31,56.23 0,30.93 -28.48,56.23 -63.31,56.23l-108.52 0c-34.82,0 -63.3,-25.3 -63.3,-56.23 0,-30.94 28.48,-56.23 63.3,-56.23zm98.35 -224.97l369.36 0c34.82,0 63.3,25.3 63.3,56.24l0 0c0,30.94 -28.48,56.24 -63.3,56.24l-369.36 0c-34.82,0 -63.3,-25.3 -63.3,-56.24l0 0c0,-30.94 28.48,-56.24 63.3,-56.24zm98.34 -224.95l108.52 0c34.83,0 63.3,25.31 63.3,56.24 0,30.93 -28.47,56.22 -63.3,56.22l-108.52 0c-34.83,0 -63.3,-25.29 -63.3,-56.22 0,-30.93 28.47,-56.24 63.3,-56.24zm161.79 -224.96l197.1 0c34.83,0 63.29,25.31 63.29,56.23 0,30.93 -28.46,56.24 -63.29,56.24l-197.1 0c-34.82,0 -63.31,-25.31 -63.31,-56.24 0,-30.92 28.49,-56.23 63.31,-56.23zm354.11 -224.96l17.99 0c34.81,0 63.31,25.3 63.31,56.23 0,30.94 -28.5,56.23 -63.31,56.23l-17.99 0c-34.81,0 -63.29,-25.29 -63.29,-56.23 0,-30.93 28.48,-56.23 63.29,-56.23zm-220.87 -224.96l138.2 0c34.82,0 63.29,25.31 63.29,56.24 0,30.93 -28.47,56.22 -63.29,56.22l-138.2 0c-34.83,0 -63.31,-25.29 -63.31,-56.22 0,-30.93 28.48,-56.24 63.31,-56.24z"/>
 </g>
</svg>
