<?xml version="1.0" encoding="UTF-8"?>
<!DOCTYPE svg PUBLIC "-//W3C//DTD SVG 1.1//EN" "http://www.w3.org/Graphics/SVG/1.1/DTD/svg11.dtd">
<!-- Creator: CorelDRAW -->
<svg xmlns="http://www.w3.org/2000/svg" xml:space="preserve" width="91.945mm" height="102.326mm" version="1.1" style="shape-rendering:geometricPrecision; text-rendering:geometricPrecision; image-rendering:optimizeQuality; fill-rule:evenodd; clip-rule:evenodd"
viewBox="0 0 11489.84 12787.15"
 xmlns:xlink="http://www.w3.org/1999/xlink"
 xmlns:xodm="http://www.corel.com/coreldraw/odm/2003">
 <defs>
  <style type="text/css">
   <![CDATA[
    .fil0 {fill:#1E2A7B}
   ]]>
  </style>
 </defs>
 <g id="Camada_x0020_1">
  <metadata id="CorelCorpID_0Corel-Layer"/>
  <path class="fil0" d="M3917.61 0l7012.3 0c307.97,0 559.94,251.97 559.94,559.93l0 11667.29c0,307.96 -251.97,559.93 -559.94,559.93l-617.02 0 -2002.84 0 -3421.44 0 -931.8 0c-440.52,-30.35 -603.02,-339.42 -603.02,-458.77l-939.53 38.33 -104.52 0 1.06 0 -141.57 0c-132.82,0 -241.51,-98.73 -241.51,-216.74 0,-118.03 108.68,-214.55 241.51,-214.55l354.17 0 1.05 0 265.04 0c132.84,0 241.49,-98.68 241.49,-216.71 0,-118 -108.66,-214.6 -241.49,-214.6l-52.42 0 1.07 0 -44.11 0c-132.84,0 -241.52,-98.65 -241.52,-216.69 0,-118.03 108.68,-214.58 241.52,-214.58l256.75 0 1.01 0 430.86 0c132.82,0 241.51,-98.67 241.51,-216.69 0,-118.07 -108.68,-214.59 -241.51,-214.59l-218.21 0 0.99 0 -1042.26 -2.14c-132.8,0 -241.51,-96.52 -241.51,-214.54l0 -0.05c0,-118 108.71,-214.59 241.51,-214.59l1254.92 0 1.06 0 198.39 0c132.84,0 241.49,-98.61 241.49,-216.66l0 -0.04c0,-113.84 -101.11,-207.69 -227.46,-214.15l1.25 0 -543.98 0c-132.85,0 -241.57,-99.07 -241.57,-217.09l0 -0.04c0,-118 108.72,-214.54 241.57,-214.54l756.58 0 1.06 0 146.3 0c132.85,0 241.48,-98.7 241.48,-216.73 0,-98.78 -76.12,-182.47 -178.8,-207.2l4.66 0 -358.24 0c-132.86,0 -241.53,-106.06 -241.53,-224.07 0,-118.02 108.67,-214.58 241.53,-214.58l570.89 0 1.05 0 206.77 0c132.84,0 241.51,-98.67 241.51,-216.69 0,-116.34 -105.53,-211.75 -235.66,-214.54l1.06 0 -1040.48 0c-132.84,0 -241.51,-98.71 -241.51,-216.73 0,-104.28 84.84,-191.78 196.22,-210.75l0 0 -4.07 -7066.52c0,-307.96 251.97,-559.93 559.94,-559.93zm-2543.05 11914.59l84.34 0c132.79,0 241.51,96.48 241.51,214.54 0,118.02 -108.72,214.56 -241.51,214.56l-84.34 0c-132.87,0 -241.54,-96.55 -241.54,-214.56 0,-118.05 108.67,-214.54 241.54,-214.54zm-709.19 -2575.21l161.68 0c132.79,0 241.49,96.6 241.49,214.6 0,118.02 -108.71,214.56 -241.49,214.56l-161.68 0c-132.87,0 -241.56,-96.55 -241.56,-214.56 0,-118 108.68,-214.6 241.56,-214.6zm309.47 -858.37l1262.75 0c132.85,0 241.52,96.53 241.52,214.55 0,118.08 -108.67,214.58 -241.52,214.58l-1262.75 0c-132.84,0 -241.49,-96.5 -241.49,-214.58 0,-118.02 108.66,-214.55 241.49,-214.55zm-733.33 3433.58l414.11 0c132.89,0 241.58,96.48 241.58,214.54 0,118.02 -108.69,214.56 -241.58,214.56l-414.11 0c-132.84,0 -241.52,-96.55 -241.52,-214.56 0,-118.05 108.68,-214.54 241.52,-214.54zm375.29 -858.43l1409.39 0c132.87,0 241.53,96.52 241.53,214.56l0 0.02c0,118.07 -108.66,214.6 -241.53,214.6l-1409.39 0c-132.86,0 -241.53,-96.53 -241.53,-214.6l0 -0.02c0,-118.04 108.67,-214.56 241.53,-214.56zm375.23 -858.38l414.11 0c132.89,0 241.53,96.57 241.53,214.59 0,118.02 -108.64,214.55 -241.53,214.55l-414.11 0c-132.87,0 -241.52,-96.53 -241.52,-214.55 0,-118.02 108.64,-214.59 241.52,-214.59zm617.35 -858.4l752.12 0c132.87,0 241.48,96.6 241.48,214.6 0,118.02 -108.61,214.56 -241.48,214.56l-752.12 0c-132.86,0 -241.56,-96.55 -241.56,-214.56 0,-118 108.69,-214.6 241.56,-214.6zm1351.23 -858.37l68.63 0c132.85,0 241.58,96.53 241.58,214.55 0,118.08 -108.73,214.58 -241.58,214.58l-68.63 0c-132.84,0 -241.53,-96.5 -241.53,-214.58 0,-118.02 108.69,-214.55 241.53,-214.55zm-842.81 -858.39l527.37 0c132.84,0 241.49,96.57 241.49,214.59 0,118.02 -108.66,214.54 -241.49,214.54l-527.37 0c-132.89,0 -241.57,-96.52 -241.57,-214.54 0,-118.02 108.68,-214.59 241.57,-214.59z"/>
 </g>
</svg>
